<svg aria-hidden="true" style="position: absolute; width: 0; height: 0; overflow: hidden;" version="1.1" xmlns="http://www.w3.org/2000/svg" xmlns:xlink="http://www.w3.org/1999/xlink">
<defs>
<!-- logo -->
<symbol id="logo-icon" viewBox="0 0 48 32">
<path fill="#174a94" style="fill: var(--color1, #174a94); stroke: var(--color1, #174a94)" stroke="#174a94" stroke-linejoin="miter" stroke-linecap="butt" stroke-miterlimit="4" stroke-width="1.0667" d="M46.93 30.401v0.534h-0.534c-2.678 0-4.259-1.141-5.427-2.167l-0.477-0.427c-0.542-0.494-0.956-0.867-1.427-1.127-0.451-0.249-0.975-0.404-1.734-0.404s-1.285 0.154-1.737 0.404c-0.471 0.26-0.882 0.634-1.425 1.127-1.219 1.108-2.838 2.594-5.914 2.594s-4.686-1.49-5.901-2.594h-0.003c-0.542-0.494-0.953-0.867-1.424-1.127-0.451-0.249-0.977-0.404-1.737-0.404s-1.283 0.155-1.734 0.404c-0.236 0.13-0.458 0.289-0.688 0.477l-0.74 0.651c-1.216 1.105-2.844 2.594-5.906 2.594s-4.682-1.486-5.898-2.591c-0.542-0.494-0.954-0.865-1.424-1.125-0.451-0.249-0.977-0.406-1.737-0.406h-0.534v-4.156h0.534c3.059 0 4.687 1.486 5.904 2.591l0.74 0.651c0.23 0.187 0.452 0.344 0.688 0.474 0.451 0.249 0.975 0.406 1.734 0.406s1.285-0.155 1.737-0.404c0.473-0.26 0.888-0.632 1.435-1.128 1.217-1.105 2.845-2.591 5.906-2.591 2.678 0 4.257 1.137 5.424 2.161l0.482 0.432c0.537 0.494 0.946 0.866 1.414 1.125 0.449 0.248 0.972 0.403 1.729 0.404s1.282-0.157 1.734-0.406c0.472-0.26 0.885-0.632 1.427-1.125h0.003c1.217-1.105 2.845-2.591 5.906-2.591s4.685 1.486 5.901 2.591h0.002c0.542 0.494 0.954 0.865 1.425 1.125 0.451 0.249 0.977 0.406 1.737 0.406h0.531l0.003 0.531 0.005 3.091zM46.93 19.333v0.534h-0.534c-2.677 0-4.258-1.137-5.427-2.164l-0.477-0.43c-0.543-0.493-0.955-0.862-1.427-1.122-0.451-0.249-0.975-0.406-1.734-0.406s-1.285 0.157-1.737 0.406c-0.471 0.26-0.883 0.63-1.425 1.122l-0.003-0.003c-1.223 1.123-2.838 2.596-5.911 2.596-3.076-0-4.687-1.486-5.904-2.594v-0.003c-0.541-0.492-0.954-0.86-1.424-1.12-0.452-0.249-0.977-0.406-1.737-0.406s-1.283 0.157-1.734 0.406c-0.472 0.26-0.884 0.63-1.427 1.122-1.216 1.124-2.843 2.594-5.901 2.594-3.060-0-4.685-1.473-5.904-2.583-0.542-0.492-0.954-0.863-1.424-1.122-0.452-0.249-0.977-0.404-1.737-0.404h-0.534v-4.161h0.534c3.057 0 4.684 1.485 5.901 2.594 0.543 0.493 0.958 0.864 1.43 1.125 0.452 0.25 0.975 0.406 1.734 0.406s1.284-0.156 1.737-0.406c0.237-0.131 0.459-0.29 0.69-0.477l0.747-0.651c1.217-1.108 2.845-2.591 5.904-2.591 3.061 0 4.687 1.488 5.904 2.596 0.538 0.49 0.949 0.861 1.419 1.122 0.45 0.25 0.972 0.406 1.727 0.406 0.757 0 1.282-0.156 1.734-0.406 0.473-0.261 0.887-0.633 1.43-1.125 1.217-1.109 2.846-2.594 5.906-2.594s4.684 1.485 5.901 2.594c0.542 0.493 0.956 0.864 1.427 1.125 0.452 0.25 0.978 0.406 1.737 0.406h0.531l0.003 0.534 0.005 3.078zM46.93 8.818h-0.534c-2.677 0-4.259-1.139-5.427-2.164l-0.477-0.43c-0.542-0.494-0.956-0.865-1.427-1.125-0.451-0.249-0.975-0.404-1.734-0.404s-1.285 0.154-1.737 0.404c-0.471 0.26-0.883 0.631-1.425 1.125h-0.003c-1.218 1.104-2.835 2.594-5.911 2.594-2.691-0-4.256-1.14-5.419-2.164l-0.477-0.43c-0.542-0.494-0.956-0.865-1.427-1.125-0.451-0.249-0.977-0.404-1.737-0.404s-1.283 0.155-1.734 0.404c-0.236 0.13-0.458 0.287-0.688 0.474l-0.74 0.651c-1.216 1.105-2.844 2.594-5.906 2.594-2.678-0-4.257-1.139-5.424-2.164l-0.479-0.43c-0.542-0.494-0.954-0.865-1.424-1.125-0.451-0.249-0.977-0.404-1.737-0.404h-0.534v-4.161h0.534c3.059 0 4.687 1.496 5.901 2.594h0.003c0.542 0.494 0.956 0.867 1.427 1.128 0.451 0.249 0.975 0.404 1.734 0.404s1.286-0.154 1.737-0.404c0.471-0.26 0.882-0.634 1.424-1.128h0.003c1.214-1.097 2.842-2.593 5.904-2.594 2.68 0 4.261 1.145 5.427 2.167l0.477 0.427c0.542 0.494 0.956 0.867 1.427 1.128 0.451 0.249 0.977 0.404 1.737 0.404s1.283-0.155 1.734-0.404c0.471-0.26 0.885-0.634 1.427-1.128l0.477-0.427c1.167-1.022 2.75-2.167 5.43-2.167 3.062 0 4.687 1.497 5.901 2.594h0.003c0.542 0.494 0.953 0.867 1.425 1.128 0.451 0.249 0.977 0.404 1.737 0.404h0.534v4.159z"></path>
</symbol>
<!-- 360 -->
<symbol id="360-icon" viewBox="0 0 65 34">
<path d="M53.0866 0.180511C52.3938 0.427108 51.5366 1.22562 51.2195 1.93018C50.6911 3.04574 50.9025 4.54882 51.7127 5.48824C53.2393 7.27314 56.1515 6.89737 57.2083 4.78367C57.6076 3.99691 57.6311 2.7874 57.2671 1.98889C56.5625 0.415366 54.7071 -0.383142 53.0866 0.180511ZM55.0712 1.95367C55.4939 2.16504 55.764 2.57603 55.8344 3.13969C56.0106 4.43139 54.4723 5.39429 53.4037 4.66624C52.2412 3.89122 52.4173 2.25898 53.6973 1.81275C54.1905 1.64836 54.5427 1.68358 55.0712 1.95367Z" fill="#174A94"/>
<path d="M17.3524 2.17732C16.5656 2.35347 15.3444 2.87015 14.7807 3.2694L14.452 3.50426L14.8512 4.65505C15.0743 5.28916 15.2857 5.84107 15.3327 5.88804C15.3796 5.93501 15.7084 5.79409 16.0607 5.57098C16.9884 4.98384 17.7399 4.76073 18.7615 4.76073C20.2176 4.74899 20.934 5.34787 20.934 6.55737C20.934 7.39111 20.5699 7.93128 19.7362 8.34227C19.2665 8.56538 18.9377 8.6241 17.7399 8.65933L16.2956 8.7063V10.045V11.3836H17.6225C18.4445 11.3836 19.1725 11.4541 19.5131 11.548C20.8518 11.959 21.5093 12.781 21.5093 14.0258C21.4976 15.4114 20.6404 16.2686 19.0551 16.4917C17.9748 16.6327 16.2956 16.2217 15.2387 15.5523L14.769 15.2588L14.6398 15.5758C14.5694 15.7637 14.3932 16.2804 14.2288 16.7383C14.0762 17.1963 13.9235 17.6543 13.8883 17.7482C13.7944 17.9831 14.9217 18.5702 16.1194 18.9225C16.8944 19.1456 17.3289 19.1926 18.6441 19.1808C20.0415 19.1808 20.3351 19.1339 21.0866 18.8755C23.353 18.0653 24.586 16.5387 24.7269 14.378C24.8091 13.0041 24.4803 11.9708 23.67 11.0901C23.353 10.7378 22.895 10.3385 22.6601 10.1976C22.4253 10.0567 22.2139 9.92754 22.1904 9.90406C22.1669 9.89232 22.4488 9.61049 22.8011 9.26995C23.1768 8.91767 23.5996 8.36576 23.7757 7.98999C24.0575 7.41459 24.1045 7.19148 24.1045 6.27555C24.1045 5.35961 24.0575 5.12476 23.764 4.49065C23.3999 3.69214 22.7189 2.97583 21.9673 2.58832C20.8048 2.00118 18.9377 1.83678 17.3524 2.17732Z" fill="#174A94"/>
<path d="M33.9586 2.17689C28.9679 3.01062 25.8913 7.16756 26.1966 12.6749C26.2788 13.9784 26.3727 14.4363 26.772 15.4932C27.6879 17.8417 29.7312 19.2509 32.2206 19.2509C34.7688 19.2509 36.8825 17.6421 37.6575 15.0939C37.9863 14.0253 37.9981 12.2874 37.681 11.2775C36.9295 8.87026 34.851 7.47287 32.2676 7.66075C31.5043 7.70772 31.0463 7.83689 29.9895 8.27138C29.602 8.43578 30.3418 7.23801 31.0698 6.50996C32.1737 5.40614 33.6885 4.80726 35.4147 4.80726H36.3776V3.39813V1.989L35.6495 2.00075C35.2385 2.01249 34.487 2.08294 33.9586 2.17689ZM33.2422 9.98582C34.6866 10.432 35.5321 12.4166 35.0389 14.1428C34.6866 15.3405 33.4536 16.3152 32.3028 16.3152C30.5297 16.3152 29.1088 14.3776 29.4728 12.4401C29.8368 10.4555 31.4339 9.41042 33.2422 9.98582Z" fill="#174A94"/>
<path d="M43.188 2.15301C41.8963 2.52878 40.6516 3.53865 39.9353 4.80687C38.5262 7.28459 38.2091 11.6412 39.219 14.7882C40.0645 17.4421 41.7319 19.0391 43.8574 19.2152C46.8165 19.4501 49.0359 17.6065 49.8931 14.2011C50.4216 12.0639 50.4098 8.82289 49.8579 6.74443C49.306 4.61899 48.0026 2.91629 46.5112 2.32915C45.6775 2.01209 43.9865 1.91815 43.188 2.15301ZM45.6305 5.01824C46.7461 5.81675 47.4154 9.1282 47.0749 12.2518C46.7578 15.1053 45.8889 16.5496 44.4797 16.5496C42.8005 16.5496 41.7789 14.3302 41.7789 10.6782C41.7789 7.84824 42.4717 5.60538 43.5638 4.91256C44.0805 4.5955 45.1021 4.64247 45.6305 5.01824Z" fill="#174A94"/>
<path d="M11.1304 15.4221C5.04762 16.8195 1.23122 18.6749 0.256571 20.7181C-0.999904 23.3603 2.39375 25.8967 9.66252 27.7638C12.105 28.3862 14.935 28.9146 17.8824 29.2903C19.867 29.5369 23.9182 29.9362 24.5171 29.9362C24.7285 29.9362 24.752 30.0536 24.7754 31.8972L24.8107 33.8583L26.9831 32.0499C28.1808 31.0518 29.59 29.8775 30.1301 29.4313C30.6703 28.985 31.0931 28.574 31.0696 28.5036C31.0461 28.4449 29.6252 27.2354 27.9225 25.8145L24.8107 23.2428L24.7754 24.8868C24.752 26.4956 24.7402 26.5308 24.4819 26.5308C24.0004 26.5308 20.1371 26.1785 18.54 25.9906C16.0975 25.7088 12.9975 25.1686 11.0012 24.6637C2.21761 22.4561 2.13541 19.2855 10.7781 17.0661C11.647 16.843 12.3986 16.6199 12.4338 16.5729C12.5043 16.4907 13.0092 15.1638 13.0092 15.0699C13.0092 14.9994 12.974 15.0112 11.1304 15.4221Z" fill="#174A94"/>
<path d="M51.1974 15.8094C51.0565 16.1734 50.9626 16.4905 50.9743 16.5022C50.986 16.5139 51.6436 16.6549 52.4304 16.831C55.1547 17.4299 57.926 18.5102 58.9594 19.3674C60.0397 20.2716 60.0397 21.3989 58.9594 22.2914C56.6695 24.1702 50.0584 25.7203 41.3687 26.4131C39.9596 26.5188 34.6166 26.7654 33.4776 26.7654H32.9727V28.4681V30.1708H33.7242C36.519 30.1708 42.5313 29.7598 45.8897 29.337C59.6052 27.6226 66.7096 23.7123 63.2572 19.7784C62.3648 18.7686 59.9223 17.4651 57.3154 16.6079C55.9767 16.1734 52.0077 15.14 51.6554 15.14C51.5027 15.14 51.3736 15.3397 51.1974 15.8094Z" fill="#174A94"/>
</symbol>
<!-- YouTube -->
<symbol id="youtube-icon" viewBox="0 0 27 20">
<path d="M20.7342 0H5.43501C2.43334 0 0 2.54721 0 5.68936V13.6953C0 16.8374 2.43334 19.3846 5.43501 19.3846H20.7342C23.7359 19.3846 26.1692 16.8374 26.1692 13.6953V5.68936C26.1692 2.54721 23.7359 0 20.7342 0ZM17.0586 10.0818L9.90262 13.6545C9.71194 13.7497 9.49169 13.6042 9.49169 13.383V6.0144C9.49169 5.79014 9.71773 5.64479 9.90881 5.74617L17.0647 9.54215C17.2775 9.65499 17.2738 9.97439 17.0586 10.0818Z" fill="#174A94"/>
</symbol>
</defs>
</svg>
